<svg width="183" height="50" viewBox="0 0 183 50" fill="none" xmlns="http://www.w3.org/2000/svg">
<circle cx="25" cy="25" r="25" fill="#00C543"/>
<path d="M75.175 15.625V33H72.325V21.1L67.025 33H65.05L59.725 21.1V33H56.875V15.625H59.95L66.05 29.25L72.125 15.625H75.175ZM91.3209 19.225L82.8709 39.475H79.9209L82.7209 32.775L77.2959 19.225H80.4709L84.3459 29.725L88.3709 19.225H91.3209ZM118.266 15.625V33H115.416V21.1L110.116 33H108.141L102.816 21.1V33H99.9658V15.625H103.041L109.141 29.25L115.216 15.625H118.266ZM127.987 33.225C126.687 33.225 125.512 32.9333 124.462 32.35C123.412 31.75 122.587 30.9167 121.987 29.85C121.387 28.7667 121.087 27.5167 121.087 26.1C121.087 24.7 121.395 23.4583 122.012 22.375C122.628 21.2917 123.47 20.4583 124.537 19.875C125.603 19.2917 126.795 19 128.112 19C129.428 19 130.62 19.2917 131.687 19.875C132.753 20.4583 133.595 21.2917 134.212 22.375C134.828 23.4583 135.137 24.7 135.137 26.1C135.137 27.5 134.82 28.7417 134.187 29.825C133.553 30.9083 132.687 31.75 131.587 32.35C130.503 32.9333 129.303 33.225 127.987 33.225ZM127.987 30.75C128.72 30.75 129.403 30.575 130.037 30.225C130.687 29.875 131.212 29.35 131.612 28.65C132.012 27.95 132.212 27.1 132.212 26.1C132.212 25.1 132.02 24.2583 131.637 23.575C131.253 22.875 130.745 22.35 130.112 22C129.478 21.65 128.795 21.475 128.062 21.475C127.328 21.475 126.645 21.65 126.012 22C125.395 22.35 124.903 22.875 124.537 23.575C124.17 24.2583 123.987 25.1 123.987 26.1C123.987 27.5833 124.362 28.7333 125.112 29.55C125.878 30.35 126.837 30.75 127.987 30.75ZM144.904 19C145.987 19 146.954 19.225 147.804 19.675C148.671 20.125 149.346 20.7917 149.829 21.675C150.312 22.5583 150.554 23.625 150.554 24.875V33H147.729V25.3C147.729 24.0667 147.421 23.125 146.804 22.475C146.187 21.8083 145.346 21.475 144.279 21.475C143.212 21.475 142.362 21.8083 141.729 22.475C141.112 23.125 140.804 24.0667 140.804 25.3V33H137.954V19.225H140.804V20.8C141.271 20.2333 141.862 19.7917 142.579 19.475C143.312 19.1583 144.087 19 144.904 19ZM166.814 25.775C166.814 26.2917 166.781 26.7583 166.714 27.175H156.189C156.273 28.275 156.681 29.1583 157.414 29.825C158.148 30.4917 159.048 30.825 160.114 30.825C161.648 30.825 162.731 30.1833 163.364 28.9H166.439C166.023 30.1667 165.264 31.2083 164.164 32.025C163.081 32.825 161.731 33.225 160.114 33.225C158.798 33.225 157.614 32.9333 156.564 32.35C155.531 31.75 154.714 30.9167 154.114 29.85C153.531 28.7667 153.239 27.5167 153.239 26.1C153.239 24.6833 153.523 23.4417 154.089 22.375C154.673 21.2917 155.481 20.4583 156.514 19.875C157.564 19.2917 158.764 19 160.114 19C161.414 19 162.573 19.2833 163.589 19.85C164.606 20.4167 165.398 21.2167 165.964 22.25C166.531 23.2667 166.814 24.4417 166.814 25.775ZM163.839 24.875C163.823 23.825 163.448 22.9833 162.714 22.35C161.981 21.7167 161.073 21.4 159.989 21.4C159.006 21.4 158.164 21.7167 157.464 22.35C156.764 22.9667 156.348 23.8083 156.214 24.875H163.839ZM182.019 19.225L173.569 39.475H170.619L173.419 32.775L167.994 19.225H171.169L175.044 29.725L179.069 19.225H182.019Z" fill="white"/>
<path d="M33.445 30.315C33.445 31.435 33.165 32.5083 32.605 33.535C32.045 34.5383 31.2167 35.3783 30.12 36.055C29.0467 36.7317 27.7517 37.1167 26.235 37.21V40.045H24.345V37.21C22.2217 37.0233 20.495 36.3467 19.165 35.18C17.835 33.99 17.1583 32.485 17.135 30.665H20.53C20.6233 31.645 20.985 32.4967 21.615 33.22C22.2683 33.9433 23.1783 34.3983 24.345 34.585V25.835C22.7817 25.4383 21.5217 25.03 20.565 24.61C19.6083 24.19 18.7917 23.5367 18.115 22.65C17.4383 21.7633 17.1 20.5733 17.1 19.08C17.1 17.19 17.7533 15.6267 19.06 14.39C20.39 13.1533 22.1517 12.465 24.345 12.325V9.42H26.235V12.325C28.2183 12.4883 29.8167 13.13 31.03 14.25C32.2433 15.3467 32.9433 16.7817 33.13 18.555H29.735C29.6183 17.7383 29.2567 17.0033 28.65 16.35C28.0433 15.6733 27.2383 15.23 26.235 15.02V23.56C27.775 23.9567 29.0233 24.365 29.98 24.785C30.96 25.1817 31.7767 25.8233 32.43 26.71C33.1067 27.5967 33.445 28.7983 33.445 30.315ZM20.355 18.905C20.355 20.0483 20.6933 20.9233 21.37 21.53C22.0467 22.1367 23.0383 22.6383 24.345 23.035V14.95C23.1317 15.0667 22.1633 15.4633 21.44 16.14C20.7167 16.7933 20.355 17.715 20.355 18.905ZM26.235 34.62C27.495 34.48 28.475 34.025 29.175 33.255C29.8983 32.485 30.26 31.5633 30.26 30.49C30.26 29.3467 29.91 28.4717 29.21 27.865C28.51 27.235 27.5183 26.7333 26.235 26.36V34.62Z" fill="white"/>
</svg>
